<svg width="32" height="32" viewBox="0 0 32 32" fill="none" xmlns="http://www.w3.org/2000/svg">
<path d="M13.0844 8.11976C12.1257 8.11976 11.2747 8.30605 10.5314 8.67864C9.79892 9.04059 9.17953 9.56753 8.67325 10.2595C8.17774 10.9514 7.80072 11.7871 7.54219 12.7665C7.28366 13.7458 7.1544 14.8476 7.1544 16.0719C7.1544 17.7219 7.35907 19.1324 7.7684 20.3034C8.18851 21.4637 8.83483 22.3526 9.70736 22.9701C10.5799 23.5768 11.7056 23.8802 13.0844 23.8802C14.0431 23.8802 15.0018 23.7738 15.9605 23.5609C16.93 23.348 17.9803 23.0446 19.1113 22.6507V26.8024C18.0664 27.2282 17.0377 27.5316 16.0251 27.7126C15.0126 27.9042 13.8761 28 12.6158 28C10.1813 28 8.17774 27.505 6.60503 26.515C5.04309 25.5143 3.8851 24.1198 3.13106 22.3313C2.37702 20.5323 2 18.4351 2 16.0399C2 14.2728 2.24237 12.6547 2.72711 11.1856C3.21185 9.71657 3.9228 8.44444 4.85996 7.36926C5.79713 6.29408 6.95512 5.46374 8.33393 4.87824C9.71275 4.29275 11.2962 4 13.0844 4C14.2585 4 15.4327 4.14904 16.6068 4.44711C17.7917 4.73453 18.9228 5.13373 20 5.64471L18.3842 9.66866C17.5009 9.25349 16.6122 8.89155 15.7181 8.58283C14.8241 8.27412 13.9461 8.11976 13.0844 8.11976Z" fill="#D81E05"/>
<path d="M20 14H24.1974C25.9932 14 27.3524 14.2617 28.2749 14.7852C29.1974 15.3087 29.6587 16.228 29.6587 17.5431C29.6587 18.073 29.5756 18.5518 29.4096 18.9795C29.2497 19.4072 29.016 19.7583 28.7085 20.0328C28.401 20.3073 28.0258 20.4861 27.583 20.5691V20.6648C28.032 20.7606 28.4379 20.9266 28.8007 21.1628C29.1636 21.3926 29.4526 21.731 29.6679 22.1778C29.8893 22.6183 30 23.2057 30 23.9398C30 24.7889 29.8001 25.5166 29.4004 26.1231C29.0006 26.7296 28.4287 27.1956 27.6845 27.5212C26.9465 27.8404 26.067 28 25.0461 28H20V14ZM22.8598 19.5445H24.5203C25.3506 19.5445 25.9256 19.4104 26.2454 19.1423C26.5652 18.8678 26.7251 18.4656 26.7251 17.9357C26.7251 17.3995 26.5344 17.0164 26.1531 16.7866C25.778 16.5504 25.1814 16.4323 24.3635 16.4323H22.8598V19.5445ZM22.8598 21.9001V25.5486H24.7232C25.5843 25.5486 26.1839 25.3762 26.5221 25.0315C26.8604 24.6867 27.0295 24.2239 27.0295 23.643C27.0295 23.2982 26.9557 22.995 26.8081 22.7332C26.6605 22.4715 26.4114 22.2672 26.0609 22.1204C25.7165 21.9736 25.2399 21.9001 24.631 21.9001H22.8598Z" fill="#FFC61E"/>
</svg>
